<?xml version="1.0" standalone="no"?>
<!DOCTYPE svg PUBLIC "-//W3C//DTD SVG 20010904//EN"
 "http://www.w3.org/TR/2001/REC-SVG-20010904/DTD/svg10.dtd">
<svg version="1.0" xmlns="http://www.w3.org/2000/svg"
 width="1690.000000pt" height="1690.000000pt" viewBox="0 0 1690.000000 1690.000000"
 preserveAspectRatio="xMidYMid meet">
<metadata>
Created by potrace 1.14, written by Peter Selinger 2001-2017
</metadata>
<g transform="translate(0.000000,1690.000000) scale(0.100000,-0.100000)"
fill="#000000" stroke="none">
<path d="M50 16896 c0 -2 69 -55 152 -117 84 -63 160 -119 168 -126 8 -7 323
-242 700 -524 884 -661 952 -712 970 -726 8 -6 179 -134 380 -284 666 -497
855 -638 865 -646 6 -5 64 -49 130 -98 296 -220 360 -268 365 -275 3 -4 10 -9
15 -11 8 -3 745 -553 780 -582 6 -4 69 -52 141 -105 153 -114 1194 -893 1209
-905 6 -4 169 -127 364 -272 195 -146 356 -267 358 -269 2 -2 -16 -45 -41 -95
-26 -50 -47 -94 -47 -98 -1 -5 -9 -19 -18 -33 -20 -29 -298 -588 -366 -735
-113 -243 -238 -597 -311 -882 -52 -203 -105 -468 -119 -598 -3 -27 -8 -57
-10 -65 -2 -8 -7 -49 -10 -90 -4 -41 -8 -77 -10 -80 -10 -16 -20 -295 -20
-540 1 -255 6 -404 20 -510 2 -19 7 -60 10 -90 5 -50 26 -199 41 -290 6 -39
52 -274 60 -305 2 -11 8 -38 13 -60 26 -123 142 -510 181 -600 4 -11 23 -58
41 -105 105 -275 244 -559 400 -819 38 -63 69 -118 69 -123 0 -4 5 -8 10 -8 6
0 10 -4 10 -9 0 -12 87 -140 217 -320 30 -41 175 -224 203 -256 15 -16 62 -70
106 -120 233 -267 573 -572 889 -797 114 -81 419 -278 431 -278 3 0 18 -8 32
-19 15 -10 97 -55 182 -99 132 -69 219 -110 415 -196 252 -112 770 -270 1050
-322 50 -9 99 -18 110 -20 23 -5 119 -20 180 -28 22 -4 51 -8 65 -11 14 -2 52
-7 85 -10 33 -3 71 -8 85 -10 178 -26 926 -27 1069 0 9 1 48 6 86 9 39 4 81 9
95 11 14 2 72 11 130 20 132 21 297 52 375 72 33 8 67 16 76 18 15 3 294 75
504 130 128 34 343 90 537 140 l166 43 134 -156 c73 -85 147 -171 163 -190 17
-20 126 -148 244 -286 117 -138 233 -273 257 -301 24 -27 56 -65 71 -84 15
-19 39 -46 53 -61 14 -15 41 -47 62 -71 20 -24 44 -54 55 -65 25 -30 75 -88
358 -419 136 -159 259 -303 273 -320 15 -16 109 -127 210 -245 101 -118 193
-226 205 -240 57 -66 223 -260 260 -304 23 -27 47 -54 52 -60 13 -14 125 -145
190 -221 158 -186 217 -255 240 -280 11 -13 38 -44 60 -71 22 -26 96 -114 165
-194 69 -81 135 -159 147 -173 11 -15 24 -27 27 -27 3 0 6 596 6 1323 l0 1324
-82 69 c-46 38 -91 76 -101 84 -11 8 -24 20 -31 26 -10 9 -605 506 -634 529
-7 5 -21 17 -30 26 -9 9 -84 71 -167 139 -82 68 -152 127 -155 130 -3 3 -43
37 -90 75 -47 39 -96 80 -110 92 -14 11 -142 119 -285 238 -143 119 -269 224
-280 233 -28 24 -196 163 -219 182 -10 8 -23 20 -30 25 -11 11 -307 259 -336
282 -8 7 -72 60 -142 119 -94 78 -133 104 -145 99 -10 -3 -88 -24 -173 -46
-85 -22 -168 -44 -185 -49 -16 -5 -41 -12 -55 -14 -14 -3 -41 -10 -60 -15 -79
-21 -872 -227 -1190 -309 -335 -87 -510 -122 -730 -147 -30 -3 -68 -8 -85 -10
-185 -22 -699 -22 -825 0 -14 2 -50 7 -80 10 -193 22 -329 45 -500 86 -47 12
-93 22 -102 24 -38 8 -180 49 -278 82 -339 112 -662 266 -1015 486 -40 25
-233 162 -295 211 -173 134 -414 359 -581 541 -99 108 -266 325 -369 479 -135
201 -291 490 -380 701 -23 55 -48 114 -55 131 -43 94 -175 534 -201 669 -2 11
-6 31 -9 45 -3 14 -9 50 -15 80 -6 30 -12 64 -14 75 -2 11 -7 45 -11 75 -4 30
-9 62 -10 71 -2 8 -6 42 -9 75 -3 32 -8 82 -11 109 -15 138 -21 485 -11 630
10 140 17 222 20 245 2 14 7 48 11 75 14 108 16 121 21 145 2 14 7 36 9 50 3
14 8 45 11 70 3 25 8 48 10 51 2 4 6 24 10 45 3 20 10 48 15 61 5 13 6 23 3
23 -2 0 0 8 5 18 5 9 11 31 14 47 9 49 63 232 102 345 74 211 150 383 333 747
l187 372 27 -17 c14 -9 122 -89 239 -177 117 -88 308 -231 423 -317 116 -87
216 -161 221 -165 6 -4 71 -53 145 -108 74 -55 137 -102 140 -105 3 -3 39 -31
80 -61 117 -87 1002 -749 1030 -770 14 -11 203 -152 420 -315 217 -162 406
-303 420 -314 14 -10 113 -84 220 -164 107 -80 206 -154 220 -165 14 -10 68
-50 120 -89 52 -39 100 -75 105 -79 6 -5 170 -127 365 -273 195 -146 360 -269
365 -273 6 -5 98 -74 206 -155 109 -81 210 -157 225 -169 16 -12 238 -178 494
-369 256 -191 529 -395 607 -453 78 -58 152 -114 165 -123 52 -39 534 -400
548 -411 8 -7 67 -50 130 -97 63 -47 122 -90 130 -97 8 -7 128 -96 265 -199
138 -102 261 -195 275 -205 46 -35 151 -114 800 -599 355 -264 652 -487 660
-493 9 -7 77 -58 153 -115 l137 -102 0 2119 0 2119 -27 18 c-24 15 -390 287
-433 321 -8 6 -100 75 -205 153 -104 78 -202 151 -218 162 -61 46 -235 177
-624 468 -224 168 -412 308 -418 313 -19 16 -1074 803 -1215 907 -78 58 -147
110 -153 115 -7 6 -208 157 -447 335 -583 436 -651 487 -680 509 -14 11 -104
78 -200 149 -96 72 -179 134 -185 139 -5 4 -161 120 -345 258 -184 137 -367
275 -407 305 -39 30 -196 147 -348 260 -152 113 -300 223 -329 245 -68 51 -68
52 -346 260 -129 96 -242 181 -250 188 -8 7 -31 23 -50 37 -19 13 -39 28 -45
33 -5 4 -46 34 -90 67 -44 33 -84 63 -90 67 -5 5 -269 202 -585 438 -316 237
-758 567 -982 735 -224 168 -417 312 -429 320 -11 8 -65 49 -119 90 -54 41
-331 248 -615 460 -284 212 -526 393 -538 402 -12 9 -99 75 -193 145 -94 70
-184 138 -200 150 -16 12 -54 40 -84 62 -30 22 -66 49 -80 60 -14 10 -74 55
-134 100 l-109 81 -2823 0 c-1553 0 -2824 -2 -2824 -4z"/>
<path d="M7152 16765 c7 -8 194 -148 825 -620 301 -225 553 -413 558 -418 6
-4 179 -134 385 -288 206 -154 382 -285 390 -292 8 -7 49 -37 90 -67 41 -30
82 -60 90 -67 8 -7 249 -187 535 -401 456 -341 1130 -844 2085 -1558 157 -117
290 -217 295 -221 14 -11 340 -255 2685 -2009 25 -18 50 -37 55 -41 6 -5 57
-43 115 -86 58 -43 119 -89 135 -102 17 -12 71 -54 122 -91 51 -38 363 -271
694 -519 331 -247 614 -458 630 -468 l29 -19 -1 1209 0 1208 -57 45 c-31 25
-115 89 -187 143 -71 54 -141 107 -155 117 -14 10 -77 57 -140 104 -63 47
-120 89 -125 93 -6 5 -28 21 -50 38 -22 16 -44 33 -50 38 -10 8 -1290 965
-2520 1885 -341 255 -631 472 -645 482 -14 11 -173 130 -355 265 -181 136
-343 257 -360 270 -33 25 -603 451 -1354 1013 l-484 362 -1620 0 c-891 0
-1618 -2 -1615 -5z"/>
<path d="M8605 9252 c-31 -76 -68 -199 -90 -297 -19 -84 -24 -113 -36 -190
-29 -199 -30 -475 -3 -665 19 -132 61 -304 104 -433 206 -610 643 -1106 1222
-1386 190 -92 415 -168 573 -195 17 -2 44 -7 60 -10 114 -22 226 -30 395 -31
223 0 338 12 530 55 213 49 377 108 565 204 131 67 345 205 344 221 0 6 -167
134 -370 285 -204 151 -380 283 -392 292 -12 9 -179 135 -372 278 -192 144
-361 270 -375 280 -14 11 -452 339 -975 730 -522 391 -957 716 -965 723 -8 7
-31 23 -50 37 -19 13 -39 28 -45 32 -109 86 -113 88 -120 70z"/>
</g>
</svg>
